<?xml version="1.0" encoding="UTF-8"?>
<!DOCTYPE svg PUBLIC "-//W3C//DTD SVG 1.1//EN" "http://www.w3.org/Graphics/SVG/1.1/DTD/svg11.dtd">
<!-- Creator: CorelDRAW 2021 (64-Bit) -->
<?xml-stylesheet href="logo.css" type="text/css"?>
<svg xmlns="http://www.w3.org/2000/svg" xml:space="preserve" width="210mm" height="297mm" version="1.1" style="shape-rendering:geometricPrecision; text-rendering:geometricPrecision; image-rendering:optimizeQuality; fill-rule:evenodd; clip-rule:evenodd"
viewBox="0 0 21000 29700"
 xmlns:xlink="http://www.w3.org/1999/xlink"
 xmlns:xodm="http://www.corel.com/coreldraw/odm/2003">
 <defs>
 <linearGradient id="id0" gradientUnits="userSpaceOnUse" x1="3945.84" y1="14338.72" x2="8923.74" y2="14263.49">
  <stop offset="0" style="stop-opacity:1; stop-color:#FEFEFE"/>
  <stop offset="1" style="stop-opacity:1; stop-color:#FEFEFE"/>
 </linearGradient>
 <linearGradient id="id1" gradientUnits="userSpaceOnUse" x1="3895.73" y1="14298.19" x2="8974.01" y2="14261.55">
  <stop offset="0" style="stop-opacity:1; stop-color:#7C39E8"/>
  <stop offset="1" style="stop-opacity:1; stop-color:#5B1CBF"/>
 </linearGradient>
 <linearGradient id="id2" gradientUnits="userSpaceOnUse" x1="4060.54" y1="14264.45" x2="2686.13" y2="14651.25">
  <stop offset="0" style="stop-opacity:1; stop-color:#5B1CBF"/>
  <stop offset="1" style="stop-opacity:1; stop-color:#7C39E8"/>
 </linearGradient>
 <linearGradient id="id3" gradientUnits="objectBoundingBox" x1="78.7684%" y1="60.168%" x2="0%" y2="63.8383%">
  <stop offset="0" style="stop-opacity:1; stop-color:#7C39E8"/>
  <stop offset="1" style="stop-opacity:1; stop-color:#4A299E"/>
 </linearGradient>
 </defs>
 <g id="Layer_x0020_1">
  <metadata id="CorelCorpID_0Corel-Layer"/>
  <g id="_2141820313360">
   <g>
    <path class="fil0" d="M3929.01 13900.06l5004.06 0c131.36,0 238.83,107.47 238.83,238.83l0 774.28c0,131.36 -107.47,238.83 -238.83,238.83l-5004.06 0c-131.36,0 -238.83,-107.47 -238.83,-238.83l0 -774.28c0,-131.36 107.47,-238.83 238.83,-238.83z"/>
   </g>
   <rect class="fil1" x="3744.17" y="13954.06" width="5373.72" height="1143.94" rx="132.28" ry="184.84"/>
   <g>
    <path class="fil2" d="M3225 13900.06c129.95,0 236.08,106.13 236.08,236.08l0 779.78c0,129.95 -106.13,236.08 -236.08,236.08l-762.78 0c-129.95,0 -236.08,-106.13 -236.08,-236.08l0 -779.78c0,-129.95 106.13,-236.08 236.08,-236.08l762.78 0z"/>
   </g>
   <rect class="fil3" x="2280.14" y="13954.06" width="1126.94" height="1143.94" rx="27.74" ry="184.84"/>
   <polygon class="fil4" points="4771.14,14211.07 4743.48,14330.45 4460.98,14330.45 4434.59,14444.75 4696.63,14444.75 4669.4,14564.13 4407.07,14564.13 4346.53,14826.6 4187.78,14826.6 4329.88,14211.07 "/>
   <path id="_1" class="fil4" d="M5265.88 14532.38c0,43.61 -7.34,84.39 -21.87,122.35 -14.68,37.96 -35.14,70.55 -61.67,97.93 -27.52,28.36 -59.55,50.09 -95.96,65.47 -36.4,15.24 -78.88,22.86 -127.42,22.86 -69.14,0 -122.2,-16.51 -159.17,-49.53 -36.97,-33.02 -55.46,-78.74 -55.46,-137.16 0,-41.34 6.91,-80.57 20.74,-117.68 13.69,-37.26 34.15,-70 61.1,-98.36 26.25,-27.8 58.43,-49.81 96.67,-65.9 38.1,-16.09 80.99,-24.13 128.41,-24.13 69.42,0 122.62,16.37 159.45,48.97 36.83,32.59 55.18,77.75 55.18,135.18zm-193.47 151.84c12.7,-19.19 22.3,-40.22 28.79,-63.08 6.49,-22.72 9.74,-50.52 9.74,-83.11 0,-28.37 -6.21,-50.1 -18.63,-65.34 -12.42,-15.24 -32.17,-22.86 -59.27,-22.86 -21.02,0 -39.37,5.08 -55.31,15.24 -15.81,10.16 -29.92,24.56 -42.05,43.18 -11.29,17.36 -20.18,38.81 -26.67,64.35 -6.49,25.54 -9.74,51.79 -9.74,78.6 0,31.61 7.06,54.19 21.17,67.87 14.11,13.55 33.44,20.32 57.99,20.32 17.93,0 35.14,-4.94 51.79,-14.67 16.51,-9.74 30.62,-23.29 42.19,-40.5z"/>
   <path id="_2" class="fil4" d="M5722.66 14504.87l-13.27 0c-6.49,-2.26 -15.95,-3.96 -28.08,-5.08 -12,-1.13 -23.99,-1.7 -35.84,-1.7 -19.62,0 -38.39,1.41 -56.59,4.38 -18.2,2.82 -36.83,7.48 -56.16,13.83l-71.83 310.3 -149.72 0 107.39 -463.98 149.72 0 -15.81 68.16c28.09,-20.6 56.17,-37.39 84.11,-50.38 27.94,-12.98 56.02,-19.47 84.38,-19.47 5.22,0 11.15,0.14 17.64,0.42 6.35,0.29 12.14,0.71 17.08,1.27l-33.02 142.25z"/>
   <path id="_3" class="fil4" d="M6568.47 14466.06c0,8.47 -0.56,17.64 -1.83,27.66 -1.27,9.88 -3.11,20.18 -5.65,30.9l-69.7 301.98 -151.56 0 54.19 -231.42c3.67,-16.09 6.91,-31.33 9.73,-46.01 2.97,-14.53 4.38,-26.38 4.38,-35.41 0,-15.95 -4.38,-27.52 -13.12,-35 -8.75,-7.48 -24.42,-11.15 -46.85,-11.15 -10.73,0 -22.86,2.54 -36.41,7.62 -13.55,5.08 -29.92,12.7 -49.11,22.86l-75.49 328.51 -150.85 0 53.76 -231.42c3.11,-13.55 6.07,-28.08 9.18,-43.75 2.96,-15.8 4.51,-27.66 4.51,-35.98 0,-16.79 -4.23,-28.93 -12.7,-36.55 -8.32,-7.48 -24.13,-11.29 -46.99,-11.29 -11.85,0 -24.83,2.68 -38.95,8.19 -14.11,5.5 -30.05,12.98 -47.69,22.29l-75.64 328.51 -149.72 0 107.39 -463.98 149.72 0 -11.85 51.23c30.19,-20.04 57.57,-35.7 81.84,-46.99 24.41,-11.29 50.8,-16.94 79.16,-16.94 30.48,0 56.17,6.78 77.19,20.47 20.89,13.68 35.42,33.72 43.75,60.11 36.83,-26.67 69.85,-46.85 99.06,-60.26 29.21,-13.54 57.43,-20.32 84.66,-20.32 40.79,0 71.97,10.02 93.42,30.2 21.45,20.04 32.17,48.69 32.17,85.94z"/>
   <polygon id="_4" class="fil4" points="7232.97,14330.45 7040.49,14330.45 6926.19,14826.6 6766.74,14826.6 6880.9,14330.45 6689.69,14330.45 6716.92,14211.07 7260.35,14211.07 "/>
   <path id="_5" class="fil4" d="M7580.95 14535.35c0.85,-4.94 1.56,-9.46 1.98,-13.69 0.42,-4.09 0.56,-8.33 0.56,-12.84 0,-21.73 -6.77,-38.53 -20.46,-50.1 -13.54,-11.57 -33.16,-17.35 -58.7,-17.35 -30.9,0 -56.87,8.32 -77.75,24.83 -21.03,16.51 -36.97,39.65 -47.84,69.15l202.21 0zm-114.15 303.95c-79.31,0 -140.41,-17.5 -183.59,-52.49 -43.04,-35 -64.63,-83.4 -64.63,-145.07 0,-42.19 7.06,-80.85 21.17,-116.13 13.97,-35.28 34.29,-66.32 60.82,-92.99 25.4,-25.97 57.15,-46.43 95.25,-61.67 38.1,-15.1 79.87,-22.72 125.44,-22.72 69.29,0 121.5,13.97 156.78,42.05 35.14,27.94 52.78,69.29 52.78,123.9 0,18.77 -1.84,37.11 -5.65,55.03 -3.67,17.92 -8.61,35.7 -14.67,53.34l-346.29 0c0,1.7 0,3.25 0,4.66 0,1.55 0,3.1 0,4.8 0,32.03 11.43,57.15 34.15,75.21 22.72,18.06 57.43,27.09 104.28,27.09 32.74,0 63.64,-5.5 92.99,-16.51 29.21,-11 54.61,-23.28 76.2,-36.83l16.65 0 -27.8 119.81c-28.92,12.7 -59.55,22.29 -91.58,28.78 -32.03,6.49 -66.18,9.74 -102.3,9.74z"/>
   <path id="_6" class="fil4" d="M7946.01 14839.3c-39.65,0 -78.03,-3.67 -115.29,-11.15 -37.11,-7.34 -65.61,-16.08 -85.51,-25.96l28.5 -122.06 13.69 0c6.07,5.22 13.83,11 23,17.35 9.32,6.21 22.44,12.84 39.51,19.76 14.68,6.21 31.61,11.71 50.95,16.23 19.33,4.51 40.21,6.77 62.51,6.77 33.44,0 58.42,-3.81 75.21,-11.57 16.65,-7.76 24.98,-18.77 24.98,-33.02 0,-11.01 -5.93,-19.48 -17.78,-25.26 -11.86,-5.79 -36.55,-12.98 -73.8,-21.45 -63.22,-14.68 -106.54,-32.17 -129.97,-52.92 -23.28,-20.6 -34.99,-46.42 -34.99,-77.18 0,-52.36 23.42,-93.56 70.27,-123.76 46.85,-30.06 110.21,-45.16 190.22,-45.16 34.71,0 69.43,3.53 104.14,10.59 34.71,7.05 60.25,14.53 76.48,22.58l-27.37 117.54 -12.84 0c-19.62,-15.24 -43.33,-27.66 -71.13,-37.25 -27.65,-9.6 -56.16,-14.39 -85.51,-14.39 -31.75,0 -56.16,3.81 -73.09,11.43 -17.08,7.47 -25.55,19.19 -25.55,34.85 0,12.14 7.34,21.45 22.02,27.94 14.53,6.49 37.67,13.12 69.14,20.04 58.56,12.56 100.76,28.64 126.58,47.83 25.82,19.34 38.81,46.29 38.81,81 0,51.79 -23.71,92.57 -71.13,122.35 -47.27,29.91 -111.33,44.87 -192.05,44.87z"/>
   <path id="_7" class="fil4" d="M8448.09 14835.91c-51.65,0 -88.62,-8.46 -110.63,-25.4 -22.16,-16.93 -33.16,-42.05 -33.16,-75.35 0,-8.89 0.7,-17.36 2.11,-25.68 1.27,-8.19 3.11,-17.92 5.37,-28.93l50.8 -219.71 -61.53 0 22.72 -98.22 61.38 0 30.77 -132.92 149.86 0 -30.77 132.92 139.28 0 -22.72 98.22 -139.27 0 -39.09 167.64c-2.82,11.57 -5.51,23.28 -8.05,34.99 -2.54,11.72 -3.81,21.74 -3.81,29.92 0,16.65 4.66,28.08 13.97,34.57 9.32,6.49 23.57,9.74 42.9,9.74 7.76,0 17.92,-1.55 30.62,-4.52 12.56,-2.96 22.58,-6.2 30.06,-9.87l12.42 0 -23.14 99.34c-16.94,4.23 -34.58,7.48 -53.2,9.74 -18.77,2.39 -41.07,3.52 -66.89,3.52z"/>
   <path class="fil3" d="M2328.82 14348.53l-166.03 0c185.45,144.94 336.87,308.98 467.53,484.64 47.03,60.21 135.58,49.97 172.19,0 342.57,-494.71 784.97,-928.01 1251.24,-1303.75l-205.76 0c-425.29,357.15 -790.29,749.98 -1079.83,1206.88 -37.96,50.53 -79.04,37.28 -107.79,-8.74 -86.89,-143.19 -212.68,-266.55 -331.55,-379.03z"/>
   <path class="fil5" d="M2358.81 14398.55l-196.02 0c185.45,144.94 406.85,388.99 537.51,564.66 47.03,60.21 135.58,49.97 172.19,0 316.69,-521.18 765.2,-1038.5 1261.23,-1383.78l-285.73 0c-425.29,357.15 -740.3,749.98 -1029.85,1206.88 -37.95,50.54 -89.03,37.28 -117.78,-8.74 -86.89,-143.19 -222.67,-266.55 -341.55,-379.02z"/>
  </g>
 </g>
</svg>
